<svg width="512" height="512" viewBox="0 0 512 512" xmlns="http://www.w3.org/2000/svg">
  <!-- Background -->
  <rect width="512" height="512" fill="#0f4c0f" rx="64"/>
  
  <!-- Mountain peaks (representing Cheaha) -->
  <path d="M60 350 L120 250 L180 320 L240 200 L300 280 L360 220 L420 300 L480 240 L480 420 L60 420 Z" fill="#2d5a2d"/>
  <path d="M60 380 L100 300 L140 350 L200 230 L260 310 L320 250 L380 320 L440 270 L480 270 L480 420 L60 420 Z" fill="#4a7c4a"/>
  
  <!-- Server symbol -->
  <rect x="180" y="80" width="152" height="24" rx="3" fill="#ffffff"/>
  <rect x="180" y="112" width="152" height="24" rx="3" fill="#e0e0e0"/>
  <rect x="180" y="144" width="152" height="24" rx="3" fill="#c0c0c0"/>
  
  <!-- Status indicators -->
  <circle cx="195" cy="92" r="3" fill="#00ff00"/>
  <circle cx="195" cy="124" r="3" fill="#ffff00"/>  
  <circle cx="195" cy="156" r="3" fill="#00ff00"/>
  
  <!-- UAB text -->
  <text x="256" y="200" font-family="Arial Black, sans-serif" font-size="36" font-weight="900" text-anchor="middle" fill="#ffffff" stroke="#000000" stroke-width="1">UAB</text>
  
  <!-- Documentation symbol -->
  <rect x="210" y="220" width="92" height="60" rx="4" fill="#ffffff" stroke="#ccc" stroke-width="2"/>
  <rect x="220" y="230" width="72" height="2" fill="#666"/>
  <rect x="220" y="240" width="72" height="2" fill="#666"/>
  <rect x="220" y="250" width="52" height="2" fill="#666"/>
  <rect x="220" y="260" width="62" height="2" fill="#666"/>
</svg>