<svg width="512" height="512" viewBox="0 0 512 512" xmlns="http://www.w3.org/2000/svg">
  <!-- Background circle -->
  <circle cx="256" cy="256" r="240" fill="#1a472a" stroke="#228b22" stroke-width="8"/>
  
  <!-- Mountain peaks (representing Cheaha, Alabama's highest peak) -->
  <path d="M80 320 L160 200 L240 280 L320 160 L400 240 L480 200 L480 400 L80 400 Z" fill="#2d5a2d"/>
  <path d="M80 340 L140 240 L200 300 L280 180 L360 260 L440 220 L480 220 L480 400 L80 400 Z" fill="#3a6b3a"/>
  
  <!-- Server/computing symbol (stacked rectangles) -->
  <rect x="180" y="120" width="152" height="30" rx="4" fill="#ffffff" opacity="0.9"/>
  <rect x="180" y="160" width="152" height="30" rx="4" fill="#ffffff" opacity="0.8"/>
  <rect x="180" y="200" width="152" height="30" rx="4" fill="#ffffff" opacity="0.7"/>
  
  <!-- UAB letters -->
  <text x="256" y="340" font-family="Arial, sans-serif" font-size="48" font-weight="bold" text-anchor="middle" fill="#ffffff">UAB</text>
  
  <!-- Computing dots/indicators -->
  <circle cx="200" cy="135" r="4" fill="#228b22"/>
  <circle cx="200" cy="175" r="4" fill="#32cd32"/>
  <circle cx="200" cy="215" r="4" fill="#228b22"/>
  
  <!-- Documentation/book symbol -->
  <rect x="280" y="260" width="60" height="80" rx="3" fill="#ffffff" opacity="0.8"/>
  <line x1="290" y1="280" x2="330" y2="280" stroke="#1a472a" stroke-width="2"/>
  <line x1="290" y1="295" x2="330" y2="295" stroke="#1a472a" stroke-width="2"/>
  <line x1="290" y1="310" x2="320" y2="310" stroke="#1a472a" stroke-width="2"/>
</svg>